# xmcd
#
# Track frame offsets: 
#        150
#        16340
#        38202
#        53017
#        72101
#        83103
#        104987
#        120715
#        136972
#        156345
#        170995
#        186431
#
# Disc length: 2715 seconds
#
# Revision: 0
# Processed by: cddbd v1.5.2PL0 Copyright (c) Steve Scherf et al.
# Submitted via: ExactAudioCopyFreeDBPlugin 1.0
#
DISCID=ad0a990c
DTITLE=Rosalie Sorrels - What Ever Happened to the Girl That Was
DYEAR=1973
DGENRE=Country
TTITLE0=Just A Country Girl
TTITLE1=Nobody's
TTITLE2=Roadrunner #2
TTITLE3=Too Many Strangers
TTITLE4=Come And Be My Driver
TTITLE5=Elegant Hobo
TTITLE6=First Fall Of Snow
TTITLE7=Hall Of Fame
TTITLE8=Rock, Salt And Nails
TTITLE9=Another Woman's Man
TTITLE10=The Toast
TTITLE11=Brightwood Fire
EXTD=
EXTT0=
EXTT1=
EXTT2=
EXTT3=
EXTT4=
EXTT5=
EXTT6=
EXTT7=
EXTT8=
EXTT9=
EXTT10=
EXTT11=
PLAYORDER=
